<svg width="850" height="2350" xmlns="http://www.w3.org/2000/svg">
<rect width="850" height="2350" fill="#f8fafc"/>
<text x="425" y="45" font-family="sans-serif" font-size="28" text-anchor="middle" font-weight="bold" fill="#0f172a">專業設計配色型錄 </text>
<text x="425" y="70" font-family="sans-serif" font-size="14" text-anchor="middle" fill="#64748b">Hierarchy: Board | Card | Title Text | Body Text</text>
<g transform="translate(40, 120)">
<rect width="770" height="100" fill="#F8FAFC" rx="12" stroke="#e2e8f0" stroke-width="0.5"/>
<rect x="280" y="15" width="260" height="70" fill="#FFFFFF" rx="8" stroke="#0D47A1" stroke-width="0.5" filter="url(#shadow)"/>
<circle cx="45" cy="35" r="18" fill="#0D47A1" stroke="#fff" stroke-width="2"/>
<text x="45" y="70" font-family="monospace" font-size="8" text-anchor="middle" fill="#64748b">#0D47A1</text>
<circle cx="115" cy="35" r="18" fill="#1E88E5" stroke="#fff" stroke-width="2"/>
<text x="115" y="70" font-family="monospace" font-size="8" text-anchor="middle" fill="#64748b">#1E88E5</text>
<circle cx="185" cy="35" r="18" fill="#012169" stroke="#fff" stroke-width="2"/>
<text x="185" y="70" font-family="monospace" font-size="8" text-anchor="middle" fill="#64748b">#012169</text>
<circle cx="245" cy="35" r="18" fill="#334155" stroke="#fff" stroke-width="2"/>
<text x="245" y="70" font-family="monospace" font-size="8" text-anchor="middle" fill="#64748b">#334155</text>
<text x="300" y="40" font-family="sans-serif" font-size="14" fill="#012169" font-weight="bold">方案 01標題樣式</text>
<text x="300" y="62" font-family="sans-serif" font-size="10" fill="#334155">這是對比測試內文 (Matched Body Text)</text>
<text x="560" y="42" font-family="sans-serif" font-size="12" fill="#012169" font-weight="bold">配對組合 01</text>
<text x="560" y="62" font-family="monospace" font-size="8" fill="#94a3b8">B:#F8FAFC | C:#FFFFFF</text>
</g>
<g transform="translate(40, 230)">
<rect width="770" height="100" fill="#F1F8E9" rx="12" stroke="#e2e8f0" stroke-width="0.5"/>
<rect x="280" y="15" width="260" height="70" fill="#FFFFFF" rx="8" stroke="#1B5E20" stroke-width="0.5" filter="url(#shadow)"/>
<circle cx="45" cy="35" r="18" fill="#1B5E20" stroke="#fff" stroke-width="2"/>
<text x="45" y="70" font-family="monospace" font-size="8" text-anchor="middle" fill="#64748b">#1B5E20</text>
<circle cx="115" cy="35" r="18" fill="#388E3C" stroke="#fff" stroke-width="2"/>
<text x="115" y="70" font-family="monospace" font-size="8" text-anchor="middle" fill="#64748b">#388E3C</text>
<circle cx="185" cy="35" r="18" fill="#0D2E11" stroke="#fff" stroke-width="2"/>
<text x="185" y="70" font-family="monospace" font-size="8" text-anchor="middle" fill="#64748b">#0D2E11</text>
<circle cx="245" cy="35" r="18" fill="#2D3748" stroke="#fff" stroke-width="2"/>
<text x="245" y="70" font-family="monospace" font-size="8" text-anchor="middle" fill="#64748b">#2D3748</text>
<text x="300" y="40" font-family="sans-serif" font-size="14" fill="#0D2E11" font-weight="bold">方案 02標題樣式</text>
<text x="300" y="62" font-family="sans-serif" font-size="10" fill="#2D3748">這是對比測試內文 (Matched Body Text)</text>
<text x="560" y="42" font-family="sans-serif" font-size="12" fill="#0D2E11" font-weight="bold">配對組合 02</text>
<text x="560" y="62" font-family="monospace" font-size="8" fill="#94a3b8">B:#F1F8E9 | C:#FFFFFF</text>
</g>
<g transform="translate(40, 340)">
<rect width="770" height="100" fill="#FFF5F5" rx="12" stroke="#e2e8f0" stroke-width="0.5"/>
<rect x="280" y="15" width="260" height="70" fill="#FFFFFF" rx="8" stroke="#B71C1C" stroke-width="0.5" filter="url(#shadow)"/>
<circle cx="45" cy="35" r="18" fill="#B71C1C" stroke="#fff" stroke-width="2"/>
<text x="45" y="70" font-family="monospace" font-size="8" text-anchor="middle" fill="#64748b">#B71C1C</text>
<circle cx="115" cy="35" r="18" fill="#D32F2F" stroke="#fff" stroke-width="2"/>
<text x="115" y="70" font-family="monospace" font-size="8" text-anchor="middle" fill="#64748b">#D32F2F</text>
<circle cx="185" cy="35" r="18" fill="#440000" stroke="#fff" stroke-width="2"/>
<text x="185" y="70" font-family="monospace" font-size="8" text-anchor="middle" fill="#64748b">#440000</text>
<circle cx="245" cy="35" r="18" fill="#4A5568" stroke="#fff" stroke-width="2"/>
<text x="245" y="70" font-family="monospace" font-size="8" text-anchor="middle" fill="#64748b">#4A5568</text>
<text x="300" y="40" font-family="sans-serif" font-size="14" fill="#440000" font-weight="bold">方案 03標題樣式</text>
<text x="300" y="62" font-family="sans-serif" font-size="10" fill="#4A5568">這是對比測試內文 (Matched Body Text)</text>
<text x="560" y="42" font-family="sans-serif" font-size="12" fill="#440000" font-weight="bold">配對組合 03</text>
<text x="560" y="62" font-family="monospace" font-size="8" fill="#94a3b8">B:#FFF5F5 | C:#FFFFFF</text>
</g>
<g transform="translate(40, 450)">
<rect width="770" height="100" fill="#FFF8E1" rx="12" stroke="#e2e8f0" stroke-width="0.5"/>
<rect x="280" y="15" width="260" height="70" fill="#FFFFFF" rx="8" stroke="#E65100" stroke-width="0.5" filter="url(#shadow)"/>
<circle cx="45" cy="35" r="18" fill="#E65100" stroke="#fff" stroke-width="2"/>
<text x="45" y="70" font-family="monospace" font-size="8" text-anchor="middle" fill="#64748b">#E65100</text>
<circle cx="115" cy="35" r="18" fill="#F57C00" stroke="#fff" stroke-width="2"/>
<text x="115" y="70" font-family="monospace" font-size="8" text-anchor="middle" fill="#64748b">#F57C00</text>
<circle cx="185" cy="35" r="18" fill="#3E2723" stroke="#fff" stroke-width="2"/>
<text x="185" y="70" font-family="monospace" font-size="8" text-anchor="middle" fill="#64748b">#3E2723</text>
<circle cx="245" cy="35" r="18" fill="#4A3728" stroke="#fff" stroke-width="2"/>
<text x="245" y="70" font-family="monospace" font-size="8" text-anchor="middle" fill="#64748b">#4A3728</text>
<text x="300" y="40" font-family="sans-serif" font-size="14" fill="#3E2723" font-weight="bold">方案 04標題樣式</text>
<text x="300" y="62" font-family="sans-serif" font-size="10" fill="#4A3728">這是對比測試內文 (Matched Body Text)</text>
<text x="560" y="42" font-family="sans-serif" font-size="12" fill="#3E2723" font-weight="bold">配對組合 04</text>
<text x="560" y="62" font-family="monospace" font-size="8" fill="#94a3b8">B:#FFF8E1 | C:#FFFFFF</text>
</g>
<g transform="translate(40, 560)">
<rect width="770" height="100" fill="#FAFAFF" rx="12" stroke="#e2e8f0" stroke-width="0.5"/>
<rect x="280" y="15" width="260" height="70" fill="#FFFFFF" rx="8" stroke="#4A148C" stroke-width="0.5" filter="url(#shadow)"/>
<circle cx="45" cy="35" r="18" fill="#4A148C" stroke="#fff" stroke-width="2"/>
<text x="45" y="70" font-family="monospace" font-size="8" text-anchor="middle" fill="#64748b">#4A148C</text>
<circle cx="115" cy="35" r="18" fill="#7B1FA2" stroke="#fff" stroke-width="2"/>
<text x="115" y="70" font-family="monospace" font-size="8" text-anchor="middle" fill="#64748b">#7B1FA2</text>
<circle cx="185" cy="35" r="18" fill="#21004A" stroke="#fff" stroke-width="2"/>
<text x="185" y="70" font-family="monospace" font-size="8" text-anchor="middle" fill="#64748b">#21004A</text>
<circle cx="245" cy="35" r="18" fill="#2D3748" stroke="#fff" stroke-width="2"/>
<text x="245" y="70" font-family="monospace" font-size="8" text-anchor="middle" fill="#64748b">#2D3748</text>
<text x="300" y="40" font-family="sans-serif" font-size="14" fill="#21004A" font-weight="bold">方案 05標題樣式</text>
<text x="300" y="62" font-family="sans-serif" font-size="10" fill="#2D3748">這是對比測試內文 (Matched Body Text)</text>
<text x="560" y="42" font-family="sans-serif" font-size="12" fill="#21004A" font-weight="bold">配對組合 05</text>
<text x="560" y="62" font-family="monospace" font-size="8" fill="#94a3b8">B:#FAFAFF | C:#FFFFFF</text>
</g>
<g transform="translate(40, 670)">
<rect width="770" height="100" fill="#F0FDFA" rx="12" stroke="#e2e8f0" stroke-width="0.5"/>
<rect x="280" y="15" width="260" height="70" fill="#FFFFFF" rx="8" stroke="#006064" stroke-width="0.5" filter="url(#shadow)"/>
<circle cx="45" cy="35" r="18" fill="#006064" stroke="#fff" stroke-width="2"/>
<text x="45" y="70" font-family="monospace" font-size="8" text-anchor="middle" fill="#64748b">#006064</text>
<circle cx="115" cy="35" r="18" fill="#00838F" stroke="#fff" stroke-width="2"/>
<text x="115" y="70" font-family="monospace" font-size="8" text-anchor="middle" fill="#64748b">#00838F</text>
<circle cx="185" cy="35" r="18" fill="#00241F" stroke="#fff" stroke-width="2"/>
<text x="185" y="70" font-family="monospace" font-size="8" text-anchor="middle" fill="#64748b">#00241F</text>
<circle cx="245" cy="35" r="18" fill="#1A365D" stroke="#fff" stroke-width="2"/>
<text x="245" y="70" font-family="monospace" font-size="8" text-anchor="middle" fill="#64748b">#1A365D</text>
<text x="300" y="40" font-family="sans-serif" font-size="14" fill="#00241F" font-weight="bold">方案 06標題樣式</text>
<text x="300" y="62" font-family="sans-serif" font-size="10" fill="#1A365D">這是對比測試內文 (Matched Body Text)</text>
<text x="560" y="42" font-family="sans-serif" font-size="12" fill="#00241F" font-weight="bold">配對組合 06</text>
<text x="560" y="62" font-family="monospace" font-size="8" fill="#94a3b8">B:#F0FDFA | C:#FFFFFF</text>
</g>
<g transform="translate(40, 780)">
<rect width="770" height="100" fill="#FFF1F2" rx="12" stroke="#e2e8f0" stroke-width="0.5"/>
<rect x="280" y="15" width="260" height="70" fill="#FFFFFF" rx="8" stroke="#880E4F" stroke-width="0.5" filter="url(#shadow)"/>
<circle cx="45" cy="35" r="18" fill="#880E4F" stroke="#fff" stroke-width="2"/>
<text x="45" y="70" font-family="monospace" font-size="8" text-anchor="middle" fill="#64748b">#880E4F</text>
<circle cx="115" cy="35" r="18" fill="#AD1457" stroke="#fff" stroke-width="2"/>
<text x="115" y="70" font-family="monospace" font-size="8" text-anchor="middle" fill="#64748b">#AD1457</text>
<circle cx="185" cy="35" r="18" fill="#4A0021" stroke="#fff" stroke-width="2"/>
<text x="185" y="70" font-family="monospace" font-size="8" text-anchor="middle" fill="#64748b">#4A0021</text>
<circle cx="245" cy="35" r="18" fill="#4C1D95" stroke="#fff" stroke-width="2"/>
<text x="245" y="70" font-family="monospace" font-size="8" text-anchor="middle" fill="#64748b">#4C1D95</text>
<text x="300" y="40" font-family="sans-serif" font-size="14" fill="#4A0021" font-weight="bold">方案 07標題樣式</text>
<text x="300" y="62" font-family="sans-serif" font-size="10" fill="#4C1D95">這是對比測試內文 (Matched Body Text)</text>
<text x="560" y="42" font-family="sans-serif" font-size="12" fill="#4A0021" font-weight="bold">配對組合 07</text>
<text x="560" y="62" font-family="monospace" font-size="8" fill="#94a3b8">B:#FFF1F2 | C:#FFFFFF</text>
</g>
<g transform="translate(40, 890)">
<rect width="770" height="100" fill="#F9FBE7" rx="12" stroke="#e2e8f0" stroke-width="0.5"/>
<rect x="280" y="15" width="260" height="70" fill="#FFFFFF" rx="8" stroke="#33691E" stroke-width="0.5" filter="url(#shadow)"/>
<circle cx="45" cy="35" r="18" fill="#33691E" stroke="#fff" stroke-width="2"/>
<text x="45" y="70" font-family="monospace" font-size="8" text-anchor="middle" fill="#64748b">#33691E</text>
<circle cx="115" cy="35" r="18" fill="#558B2F" stroke="#fff" stroke-width="2"/>
<text x="115" y="70" font-family="monospace" font-size="8" text-anchor="middle" fill="#64748b">#558B2F</text>
<circle cx="185" cy="35" r="18" fill="#1B3000" stroke="#fff" stroke-width="2"/>
<text x="185" y="70" font-family="monospace" font-size="8" text-anchor="middle" fill="#64748b">#1B3000</text>
<circle cx="245" cy="35" r="18" fill="#365314" stroke="#fff" stroke-width="2"/>
<text x="245" y="70" font-family="monospace" font-size="8" text-anchor="middle" fill="#64748b">#365314</text>
<text x="300" y="40" font-family="sans-serif" font-size="14" fill="#1B3000" font-weight="bold">方案 08標題樣式</text>
<text x="300" y="62" font-family="sans-serif" font-size="10" fill="#365314">這是對比測試內文 (Matched Body Text)</text>
<text x="560" y="42" font-family="sans-serif" font-size="12" fill="#1B3000" font-weight="bold">配對組合 08</text>
<text x="560" y="62" font-family="monospace" font-size="8" fill="#94a3b8">B:#F9FBE7 | C:#FFFFFF</text>
</g>
<g transform="translate(40, 1000)">
<rect width="770" height="100" fill="#F0F9FF" rx="12" stroke="#e2e8f0" stroke-width="0.5"/>
<rect x="280" y="15" width="260" height="70" fill="#FFFFFF" rx="8" stroke="#01579B" stroke-width="0.5" filter="url(#shadow)"/>
<circle cx="45" cy="35" r="18" fill="#01579B" stroke="#fff" stroke-width="2"/>
<text x="45" y="70" font-family="monospace" font-size="8" text-anchor="middle" fill="#64748b">#01579B</text>
<circle cx="115" cy="35" r="18" fill="#0288D1" stroke="#fff" stroke-width="2"/>
<text x="115" y="70" font-family="monospace" font-size="8" text-anchor="middle" fill="#64748b">#0288D1</text>
<circle cx="185" cy="35" r="18" fill="#00214A" stroke="#fff" stroke-width="2"/>
<text x="185" y="70" font-family="monospace" font-size="8" text-anchor="middle" fill="#64748b">#00214A</text>
<circle cx="245" cy="35" r="18" fill="#1E3A8A" stroke="#fff" stroke-width="2"/>
<text x="245" y="70" font-family="monospace" font-size="8" text-anchor="middle" fill="#64748b">#1E3A8A</text>
<text x="300" y="40" font-family="sans-serif" font-size="14" fill="#00214A" font-weight="bold">方案 09標題樣式</text>
<text x="300" y="62" font-family="sans-serif" font-size="10" fill="#1E3A8A">這是對比測試內文 (Matched Body Text)</text>
<text x="560" y="42" font-family="sans-serif" font-size="12" fill="#00214A" font-weight="bold">配對組合 09</text>
<text x="560" y="62" font-family="monospace" font-size="8" fill="#94a3b8">B:#F0F9FF | C:#FFFFFF</text>
</g>
<g transform="translate(40, 1110)">
<rect width="770" height="100" fill="#FFF7ED" rx="12" stroke="#e2e8f0" stroke-width="0.5"/>
<rect x="280" y="15" width="260" height="70" fill="#FFFFFF" rx="8" stroke="#BF360C" stroke-width="0.5" filter="url(#shadow)"/>
<circle cx="45" cy="35" r="18" fill="#BF360C" stroke="#fff" stroke-width="2"/>
<text x="45" y="70" font-family="monospace" font-size="8" text-anchor="middle" fill="#64748b">#BF360C</text>
<circle cx="115" cy="35" r="18" fill="#D84315" stroke="#fff" stroke-width="2"/>
<text x="115" y="70" font-family="monospace" font-size="8" text-anchor="middle" fill="#64748b">#D84315</text>
<circle cx="185" cy="35" r="18" fill="#441200" stroke="#fff" stroke-width="2"/>
<text x="185" y="70" font-family="monospace" font-size="8" text-anchor="middle" fill="#64748b">#441200</text>
<circle cx="245" cy="35" r="18" fill="#431407" stroke="#fff" stroke-width="2"/>
<text x="245" y="70" font-family="monospace" font-size="8" text-anchor="middle" fill="#64748b">#431407</text>
<text x="300" y="40" font-family="sans-serif" font-size="14" fill="#441200" font-weight="bold">方案 10標題樣式</text>
<text x="300" y="62" font-family="sans-serif" font-size="10" fill="#431407">這是對比測試內文 (Matched Body Text)</text>
<text x="560" y="42" font-family="sans-serif" font-size="12" fill="#441200" font-weight="bold">配對組合 10</text>
<text x="560" y="62" font-family="monospace" font-size="8" fill="#94a3b8">B:#FFF7ED | C:#FFFFFF</text>
</g>
<g transform="translate(40, 1220)">
<rect width="770" height="100" fill="#F3F4F6" rx="12" stroke="#e2e8f0" stroke-width="0.5"/>
<rect x="280" y="15" width="260" height="70" fill="#FFFFFF" rx="8" stroke="#374151" stroke-width="0.5" filter="url(#shadow)"/>
<circle cx="45" cy="35" r="18" fill="#374151" stroke="#fff" stroke-width="2"/>
<text x="45" y="70" font-family="monospace" font-size="8" text-anchor="middle" fill="#64748b">#374151</text>
<circle cx="115" cy="35" r="18" fill="#4B5563" stroke="#fff" stroke-width="2"/>
<text x="115" y="70" font-family="monospace" font-size="8" text-anchor="middle" fill="#64748b">#4B5563</text>
<circle cx="185" cy="35" r="18" fill="#111827" stroke="#fff" stroke-width="2"/>
<text x="185" y="70" font-family="monospace" font-size="8" text-anchor="middle" fill="#64748b">#111827</text>
<circle cx="245" cy="35" r="18" fill="#374151" stroke="#fff" stroke-width="2"/>
<text x="245" y="70" font-family="monospace" font-size="8" text-anchor="middle" fill="#64748b">#374151</text>
<text x="300" y="40" font-family="sans-serif" font-size="14" fill="#111827" font-weight="bold">方案 11標題樣式</text>
<text x="300" y="62" font-family="sans-serif" font-size="10" fill="#374151">這是對比測試內文 (Matched Body Text)</text>
<text x="560" y="42" font-family="sans-serif" font-size="12" fill="#111827" font-weight="bold">配對組合 11</text>
<text x="560" y="62" font-family="monospace" font-size="8" fill="#94a3b8">B:#F3F4F6 | C:#FFFFFF</text>
</g>
<g transform="translate(40, 1330)">
<rect width="770" height="100" fill="#EEF2FF" rx="12" stroke="#e2e8f0" stroke-width="0.5"/>
<rect x="280" y="15" width="260" height="70" fill="#FFFFFF" rx="8" stroke="#1E1B4B" stroke-width="0.5" filter="url(#shadow)"/>
<circle cx="45" cy="35" r="18" fill="#1E1B4B" stroke="#fff" stroke-width="2"/>
<text x="45" y="70" font-family="monospace" font-size="8" text-anchor="middle" fill="#64748b">#1E1B4B</text>
<circle cx="115" cy="35" r="18" fill="#312E81" stroke="#fff" stroke-width="2"/>
<text x="115" y="70" font-family="monospace" font-size="8" text-anchor="middle" fill="#64748b">#312E81</text>
<circle cx="185" cy="35" r="18" fill="#1E1B4B" stroke="#fff" stroke-width="2"/>
<text x="185" y="70" font-family="monospace" font-size="8" text-anchor="middle" fill="#64748b">#1E1B4B</text>
<circle cx="245" cy="35" r="18" fill="#312E81" stroke="#fff" stroke-width="2"/>
<text x="245" y="70" font-family="monospace" font-size="8" text-anchor="middle" fill="#64748b">#312E81</text>
<text x="300" y="40" font-family="sans-serif" font-size="14" fill="#1E1B4B" font-weight="bold">方案 12標題樣式</text>
<text x="300" y="62" font-family="sans-serif" font-size="10" fill="#312E81">這是對比測試內文 (Matched Body Text)</text>
<text x="560" y="42" font-family="sans-serif" font-size="12" fill="#1E1B4B" font-weight="bold">配對組合 12</text>
<text x="560" y="62" font-family="monospace" font-size="8" fill="#94a3b8">B:#EEF2FF | C:#FFFFFF</text>
</g>
<g transform="translate(40, 1440)">
<rect width="770" height="100" fill="#ECFDF5" rx="12" stroke="#e2e8f0" stroke-width="0.5"/>
<rect x="280" y="15" width="260" height="70" fill="#FFFFFF" rx="8" stroke="#064E3B" stroke-width="0.5" filter="url(#shadow)"/>
<circle cx="45" cy="35" r="18" fill="#064E3B" stroke="#fff" stroke-width="2"/>
<text x="45" y="70" font-family="monospace" font-size="8" text-anchor="middle" fill="#64748b">#064E3B</text>
<circle cx="115" cy="35" r="18" fill="#065F46" stroke="#fff" stroke-width="2"/>
<text x="115" y="70" font-family="monospace" font-size="8" text-anchor="middle" fill="#64748b">#065F46</text>
<circle cx="185" cy="35" r="18" fill="#064E3B" stroke="#fff" stroke-width="2"/>
<text x="185" y="70" font-family="monospace" font-size="8" text-anchor="middle" fill="#64748b">#064E3B</text>
<circle cx="245" cy="35" r="18" fill="#065F46" stroke="#fff" stroke-width="2"/>
<text x="245" y="70" font-family="monospace" font-size="8" text-anchor="middle" fill="#64748b">#065F46</text>
<text x="300" y="40" font-family="sans-serif" font-size="14" fill="#064E3B" font-weight="bold">方案 13標題樣式</text>
<text x="300" y="62" font-family="sans-serif" font-size="10" fill="#065F46">這是對比測試內文 (Matched Body Text)</text>
<text x="560" y="42" font-family="sans-serif" font-size="12" fill="#064E3B" font-weight="bold">配對組合 13</text>
<text x="560" y="62" font-family="monospace" font-size="8" fill="#94a3b8">B:#ECFDF5 | C:#FFFFFF</text>
</g>
<g transform="translate(40, 1550)">
<rect width="770" height="100" fill="#FFFBEB" rx="12" stroke="#e2e8f0" stroke-width="0.5"/>
<rect x="280" y="15" width="260" height="70" fill="#FFFFFF" rx="8" stroke="#451A03" stroke-width="0.5" filter="url(#shadow)"/>
<circle cx="45" cy="35" r="18" fill="#451A03" stroke="#fff" stroke-width="2"/>
<text x="45" y="70" font-family="monospace" font-size="8" text-anchor="middle" fill="#64748b">#451A03</text>
<circle cx="115" cy="35" r="18" fill="#78350F" stroke="#fff" stroke-width="2"/>
<text x="115" y="70" font-family="monospace" font-size="8" text-anchor="middle" fill="#64748b">#78350F</text>
<circle cx="185" cy="35" r="18" fill="#451A03" stroke="#fff" stroke-width="2"/>
<text x="185" y="70" font-family="monospace" font-size="8" text-anchor="middle" fill="#64748b">#451A03</text>
<circle cx="245" cy="35" r="18" fill="#78350F" stroke="#fff" stroke-width="2"/>
<text x="245" y="70" font-family="monospace" font-size="8" text-anchor="middle" fill="#64748b">#78350F</text>
<text x="300" y="40" font-family="sans-serif" font-size="14" fill="#451A03" font-weight="bold">方案 14標題樣式</text>
<text x="300" y="62" font-family="sans-serif" font-size="10" fill="#78350F">這是對比測試內文 (Matched Body Text)</text>
<text x="560" y="42" font-family="sans-serif" font-size="12" fill="#451A03" font-weight="bold">配對組合 14</text>
<text x="560" y="62" font-family="monospace" font-size="8" fill="#94a3b8">B:#FFFBEB | C:#FFFFFF</text>
</g>
<g transform="translate(40, 1660)">
<rect width="770" height="100" fill="#FFFFFF" rx="12" stroke="#e2e8f0" stroke-width="0.5"/>
<rect x="280" y="15" width="260" height="70" fill="#F9FAFB" rx="8" stroke="#333333" stroke-width="0.5" filter="url(#shadow)"/>
<circle cx="45" cy="35" r="18" fill="#333333" stroke="#fff" stroke-width="2"/>
<text x="45" y="70" font-family="monospace" font-size="8" text-anchor="middle" fill="#64748b">#333333</text>
<circle cx="115" cy="35" r="18" fill="#666666" stroke="#fff" stroke-width="2"/>
<text x="115" y="70" font-family="monospace" font-size="8" text-anchor="middle" fill="#64748b">#666666</text>
<circle cx="185" cy="35" r="18" fill="#000000" stroke="#fff" stroke-width="2"/>
<text x="185" y="70" font-family="monospace" font-size="8" text-anchor="middle" fill="#64748b">#000000</text>
<circle cx="245" cy="35" r="18" fill="#4B5563" stroke="#fff" stroke-width="2"/>
<text x="245" y="70" font-family="monospace" font-size="8" text-anchor="middle" fill="#64748b">#4B5563</text>
<text x="300" y="40" font-family="sans-serif" font-size="14" fill="#000000" font-weight="bold">方案 15標題樣式</text>
<text x="300" y="62" font-family="sans-serif" font-size="10" fill="#4B5563">這是對比測試內文 (Matched Body Text)</text>
<text x="560" y="42" font-family="sans-serif" font-size="12" fill="#000000" font-weight="bold">配對組合 15</text>
<text x="560" y="62" font-family="monospace" font-size="8" fill="#94a3b8">B:#FFFFFF | C:#F9FAFB</text>
</g>
<g transform="translate(40, 1770)">
<rect width="770" height="100" fill="#F1F5F9" rx="12" stroke="#e2e8f0" stroke-width="0.5"/>
<rect x="280" y="15" width="260" height="70" fill="#FFFFFF" rx="8" stroke="#1E293B" stroke-width="0.5" filter="url(#shadow)"/>
<circle cx="45" cy="35" r="18" fill="#1E293B" stroke="#fff" stroke-width="2"/>
<text x="45" y="70" font-family="monospace" font-size="8" text-anchor="middle" fill="#64748b">#1E293B</text>
<circle cx="115" cy="35" r="18" fill="#334155" stroke="#fff" stroke-width="2"/>
<text x="115" y="70" font-family="monospace" font-size="8" text-anchor="middle" fill="#64748b">#334155</text>
<circle cx="185" cy="35" r="18" fill="#020617" stroke="#fff" stroke-width="2"/>
<text x="185" y="70" font-family="monospace" font-size="8" text-anchor="middle" fill="#64748b">#020617</text>
<circle cx="245" cy="35" r="18" fill="#1E293B" stroke="#fff" stroke-width="2"/>
<text x="245" y="70" font-family="monospace" font-size="8" text-anchor="middle" fill="#64748b">#1E293B</text>
<text x="300" y="40" font-family="sans-serif" font-size="14" fill="#020617" font-weight="bold">方案 16標題樣式</text>
<text x="300" y="62" font-family="sans-serif" font-size="10" fill="#1E293B">這是對比測試內文 (Matched Body Text)</text>
<text x="560" y="42" font-family="sans-serif" font-size="12" fill="#020617" font-weight="bold">配對組合 16</text>
<text x="560" y="62" font-family="monospace" font-size="8" fill="#94a3b8">B:#F1F5F9 | C:#FFFFFF</text>
</g>
<g transform="translate(40, 1880)">
<rect width="770" height="100" fill="#FFFFFF" rx="12" stroke="#e2e8f0" stroke-width="0.5"/>
<rect x="280" y="15" width="260" height="70" fill="#F8FAFC" rx="8" stroke="#0F172A" stroke-width="0.5" filter="url(#shadow)"/>
<circle cx="45" cy="35" r="18" fill="#0F172A" stroke="#fff" stroke-width="2"/>
<text x="45" y="70" font-family="monospace" font-size="8" text-anchor="middle" fill="#64748b">#0F172A</text>
<circle cx="115" cy="35" r="18" fill="#1E293B" stroke="#fff" stroke-width="2"/>
<text x="115" y="70" font-family="monospace" font-size="8" text-anchor="middle" fill="#64748b">#1E293B</text>
<circle cx="185" cy="35" r="18" fill="#0F172A" stroke="#fff" stroke-width="2"/>
<text x="185" y="70" font-family="monospace" font-size="8" text-anchor="middle" fill="#64748b">#0F172A</text>
<circle cx="245" cy="35" r="18" fill="#334155" stroke="#fff" stroke-width="2"/>
<text x="245" y="70" font-family="monospace" font-size="8" text-anchor="middle" fill="#64748b">#334155</text>
<text x="300" y="40" font-family="sans-serif" font-size="14" fill="#0F172A" font-weight="bold">方案 17標題樣式</text>
<text x="300" y="62" font-family="sans-serif" font-size="10" fill="#334155">這是對比測試內文 (Matched Body Text)</text>
<text x="560" y="42" font-family="sans-serif" font-size="12" fill="#0F172A" font-weight="bold">配對組合 17</text>
<text x="560" y="62" font-family="monospace" font-size="8" fill="#94a3b8">B:#FFFFFF | C:#F8FAFC</text>
</g>
<g transform="translate(40, 1990)">
<rect width="770" height="100" fill="#FFF7ED" rx="12" stroke="#e2e8f0" stroke-width="0.5"/>
<rect x="280" y="15" width="260" height="70" fill="#FFFFFF" rx="8" stroke="#7C2D12" stroke-width="0.5" filter="url(#shadow)"/>
<circle cx="45" cy="35" r="18" fill="#7C2D12" stroke="#fff" stroke-width="2"/>
<text x="45" y="70" font-family="monospace" font-size="8" text-anchor="middle" fill="#64748b">#7C2D12</text>
<circle cx="115" cy="35" r="18" fill="#9A3412" stroke="#fff" stroke-width="2"/>
<text x="115" y="70" font-family="monospace" font-size="8" text-anchor="middle" fill="#64748b">#9A3412</text>
<circle cx="185" cy="35" r="18" fill="#7C2D12" stroke="#fff" stroke-width="2"/>
<text x="185" y="70" font-family="monospace" font-size="8" text-anchor="middle" fill="#64748b">#7C2D12</text>
<circle cx="245" cy="35" r="18" fill="#9A3412" stroke="#fff" stroke-width="2"/>
<text x="245" y="70" font-family="monospace" font-size="8" text-anchor="middle" fill="#64748b">#9A3412</text>
<text x="300" y="40" font-family="sans-serif" font-size="14" fill="#7C2D12" font-weight="bold">方案 18標題樣式</text>
<text x="300" y="62" font-family="sans-serif" font-size="10" fill="#9A3412">這是對比測試內文 (Matched Body Text)</text>
<text x="560" y="42" font-family="sans-serif" font-size="12" fill="#7C2D12" font-weight="bold">配對組合 18</text>
<text x="560" y="62" font-family="monospace" font-size="8" fill="#94a3b8">B:#FFF7ED | C:#FFFFFF</text>
</g>
<g transform="translate(40, 2100)">
<rect width="770" height="100" fill="#F5F3FF" rx="12" stroke="#e2e8f0" stroke-width="0.5"/>
<rect x="280" y="15" width="260" height="70" fill="#FFFFFF" rx="8" stroke="#4C1D95" stroke-width="0.5" filter="url(#shadow)"/>
<circle cx="45" cy="35" r="18" fill="#4C1D95" stroke="#fff" stroke-width="2"/>
<text x="45" y="70" font-family="monospace" font-size="8" text-anchor="middle" fill="#64748b">#4C1D95</text>
<circle cx="115" cy="35" r="18" fill="#5B21B6" stroke="#fff" stroke-width="2"/>
<text x="115" y="70" font-family="monospace" font-size="8" text-anchor="middle" fill="#64748b">#5B21B6</text>
<circle cx="185" cy="35" r="18" fill="#4C1D95" stroke="#fff" stroke-width="2"/>
<text x="185" y="70" font-family="monospace" font-size="8" text-anchor="middle" fill="#64748b">#4C1D95</text>
<circle cx="245" cy="35" r="18" fill="#5B21B6" stroke="#fff" stroke-width="2"/>
<text x="245" y="70" font-family="monospace" font-size="8" text-anchor="middle" fill="#64748b">#5B21B6</text>
<text x="300" y="40" font-family="sans-serif" font-size="14" fill="#4C1D95" font-weight="bold">方案 19標題樣式</text>
<text x="300" y="62" font-family="sans-serif" font-size="10" fill="#5B21B6">這是對比測試內文 (Matched Body Text)</text>
<text x="560" y="42" font-family="sans-serif" font-size="12" fill="#4C1D95" font-weight="bold">配對組合 19</text>
<text x="560" y="62" font-family="monospace" font-size="8" fill="#94a3b8">B:#F5F3FF | C:#FFFFFF</text>
</g>
<g transform="translate(40, 2210)">
<rect width="770" height="100" fill="#E5E7EB" rx="12" stroke="#e2e8f0" stroke-width="0.5"/>
<rect x="280" y="15" width="260" height="70" fill="#FFFFFF" rx="8" stroke="#000000" stroke-width="0.5" filter="url(#shadow)"/>
<circle cx="45" cy="35" r="18" fill="#000000" stroke="#fff" stroke-width="2"/>
<text x="45" y="70" font-family="monospace" font-size="8" text-anchor="middle" fill="#64748b">#000000</text>
<circle cx="115" cy="35" r="18" fill="#222222" stroke="#fff" stroke-width="2"/>
<text x="115" y="70" font-family="monospace" font-size="8" text-anchor="middle" fill="#64748b">#222222</text>
<circle cx="185" cy="35" r="18" fill="#000000" stroke="#fff" stroke-width="2"/>
<text x="185" y="70" font-family="monospace" font-size="8" text-anchor="middle" fill="#64748b">#000000</text>
<circle cx="245" cy="35" r="18" fill="#1F2937" stroke="#fff" stroke-width="2"/>
<text x="245" y="70" font-family="monospace" font-size="8" text-anchor="middle" fill="#64748b">#1F2937</text>
<text x="300" y="40" font-family="sans-serif" font-size="14" fill="#000000" font-weight="bold">方案 20標題樣式</text>
<text x="300" y="62" font-family="sans-serif" font-size="10" fill="#1F2937">這是對比測試內文 (Matched Body Text)</text>
<text x="560" y="42" font-family="sans-serif" font-size="12" fill="#000000" font-weight="bold">配對組合 20</text>
<text x="560" y="62" font-family="monospace" font-size="8" fill="#94a3b8">B:#E5E7EB | C:#FFFFFF</text>
</g>
<defs><filter id="shadow"><feDropShadow dx="0" dy="2" stdDeviation="3" flood-opacity="0.1"/></filter></defs></svg>