<svg width="1000" height="3400" xmlns="http://www.w3.org/2000/svg">
<rect width="1000" height="3400" fill="#f1f5f9"/>
<text x="500" y="55" font-family="sans-serif" font-size="32" text-anchor="middle" font-weight="bold" fill="#0f172a">科展海報 UI 元件設計大賞 (全層次配套展示)</text>
<g transform="translate(50, 150)">
<rect width="900" height="145" fill="#F8FAFC" rx="10" stroke="#e2e8f0"/>
<text x="20" y="45" font-size="18" fill="#0D47A1" font-weight="bold">STYLE 01</text>
<text x="20" y="70" font-size="9" fill="#334155" opacity="0.6">Hierarchy Check:</text>
<text x="20" y="85" font-size="9" fill="#334155">#F8FAFC (B) | #FFFFFF (C)</text>
<g transform="translate(220, 5)"><rect width="660" height="130" fill="#FFFFFF" stroke="#0D47A1" stroke-width="0.8"/><rect width="660" height="24" fill="#0D47A1"/><text x="10" y="16" font-size="12" fill="#fff" font-weight="bold">佈局風格樣式 01</text><text x="10" y="45" font-family="sans-serif" font-size="11" fill="#334155" text-anchor="start"><tspan x="10" dy="0">本研究致力於開發高效率之自動化廢棄物分類技術，整合神經網路模型，實現低延遲預測系統。</tspan></text></g>
</g>
<g transform="translate(50, 310)">
<rect width="900" height="145" fill="#F1F8E9" rx="10" stroke="#e2e8f0"/>
<text x="20" y="45" font-size="18" fill="#1B5E20" font-weight="bold">STYLE 02</text>
<text x="20" y="70" font-size="9" fill="#2D3748" opacity="0.6">Hierarchy Check:</text>
<text x="20" y="85" font-size="9" fill="#2D3748">#F1F8E9 (B) | #FFFFFF (C)</text>
<g transform="translate(220, 5)"><rect width="660" height="130" fill="#FFFFFF" rx="15" stroke="#eee" filter="url(#shadow)"/><text x="12" y="24" font-size="12" fill="#0D2E11" font-weight="bold">● 佈局風格樣式 02</text><text x="10" y="45" font-family="sans-serif" font-size="11" fill="#2D3748" text-anchor="start"><tspan x="10" dy="0">本研究致力於開發高效率之自動化廢棄物分類技術，整合神經網路模型，實現低延遲預測系統。</tspan></text></g>
</g>
<g transform="translate(50, 470)">
<rect width="900" height="145" fill="#FFF5F5" rx="10" stroke="#e2e8f0"/>
<text x="20" y="45" font-size="18" fill="#B71C1C" font-weight="bold">STYLE 03</text>
<text x="20" y="70" font-size="9" fill="#4A5568" opacity="0.6">Hierarchy Check:</text>
<text x="20" y="85" font-size="9" fill="#4A5568">#FFF5F5 (B) | #FFFFFF (C)</text>
<g transform="translate(220, 5)"><rect width="660" height="130" fill="#FFFFFF"/><path d="M 0,0 V 130" stroke="#B71C1C" stroke-width="8"/><text x="15" y="22" font-size="14" fill="#440000" font-weight="bold">佈局風格樣式 03</text><text x="10" y="45" font-family="sans-serif" font-size="11" fill="#4A5568" text-anchor="start"><tspan x="10" dy="0">本研究致力於開發高效率之自動化廢棄物分類技術，整合神經網路模型，實現低延遲預測系統。</tspan></text></g>
</g>
<g transform="translate(50, 630)">
<rect width="900" height="145" fill="#FFF8E1" rx="10" stroke="#e2e8f0"/>
<text x="20" y="45" font-size="18" fill="#E65100" font-weight="bold">STYLE 04</text>
<text x="20" y="70" font-size="9" fill="#4A3728" opacity="0.6">Hierarchy Check:</text>
<text x="20" y="85" font-size="9" fill="#4A3728">#FFF8E1 (B) | #FFFFFF (C)</text>
<g transform="translate(220, 5)"><rect width="660" height="130" fill="#FFFFFF" opacity="0.5"/><text x="0" y="20" font-size="16" fill="#3E2723" font-weight="900" style="text-transform:uppercase">佈局風格樣式 04</text><path d="M 0,28 H 660" stroke="#E65100" stroke-width="2"/><text x="10" y="55" font-family="sans-serif" font-size="11" fill="#4A3728" text-anchor="start"><tspan x="10" dy="0">本研究致力於開發高效率之自動化廢棄物分類技術，整合神經網路模型，實現低延遲預測系統。</tspan></text></g>
</g>
<g transform="translate(50, 790)">
<rect width="900" height="145" fill="#FAFAFF" rx="10" stroke="#e2e8f0"/>
<text x="20" y="45" font-size="18" fill="#4A148C" font-weight="bold">STYLE 05</text>
<text x="20" y="70" font-size="9" fill="#2D3748" opacity="0.6">Hierarchy Check:</text>
<text x="20" y="85" font-size="9" fill="#2D3748">#FAFAFF (B) | #FFFFFF (C)</text>
<g transform="translate(220, 5)"><rect width="660" height="130" fill="#FFFFFF" stroke="#4A148C" stroke-width="1"/><rect x="4" y="4" width="652" height="122" fill="none" stroke="#4A148C" stroke-width="0.5" opacity="0.3"/><text x="10" y="24" font-size="12" fill="#21004A" font-weight="bold">佈局風格樣式 05</text><text x="10" y="45" font-family="sans-serif" font-size="11" fill="#2D3748" text-anchor="start"><tspan x="10" dy="0">本研究致力於開發高效率之自動化廢棄物分類技術，整合神經網路模型，實現低延遲預測系統。</tspan></text></g>
</g>
<g transform="translate(50, 950)">
<rect width="900" height="145" fill="#F0FDFA" rx="10" stroke="#e2e8f0"/>
<text x="20" y="45" font-size="18" fill="#006064" font-weight="bold">STYLE 06</text>
<text x="20" y="70" font-size="9" fill="#1A365D" opacity="0.6">Hierarchy Check:</text>
<text x="20" y="85" font-size="9" fill="#1A365D">#F0FDFA (B) | #FFFFFF (C)</text>
<g transform="translate(220, 5)"><rect width="660" height="130" fill="#FFFFFF" rx="5" stroke="#ddd"/><rect x="10" y="-12" width="120" height="24" rx="12" fill="#006064"/><text x="70" y="4" font-size="11" fill="#fff" text-anchor="middle" font-weight="bold">佈局風格樣式 06</text><text x="10" y="45" font-family="sans-serif" font-size="11" fill="#1A365D" text-anchor="start"><tspan x="10" dy="0">本研究致力於開發高效率之自動化廢棄物分類技術，整合神經網路模型，實現低延遲預測系統。</tspan></text></g>
</g>
<g transform="translate(50, 1110)">
<rect width="900" height="145" fill="#FFF1F2" rx="10" stroke="#e2e8f0"/>
<text x="20" y="45" font-size="18" fill="#880E4F" font-weight="bold">STYLE 07</text>
<text x="20" y="70" font-size="9" fill="#4C1D95" opacity="0.6">Hierarchy Check:</text>
<text x="20" y="85" font-size="9" fill="#4C1D95">#FFF1F2 (B) | #FFFFFF (C)</text>
<g transform="translate(220, 5)"><rect width="660" height="130" fill="#FFFFFF" stroke="#880E4F" stroke-dasharray="1,4"/><text x="10" y="25" font-size="13" fill="#4A0021" font-weight="bold"># 佈局風格樣式 07</text><text x="10" y="45" font-family="sans-serif" font-size="11" fill="#4C1D95" text-anchor="start"><tspan x="10" dy="0">本研究致力於開發高效率之自動化廢棄物分類技術，整合神經網路模型，實現低延遲預測系統。</tspan></text></g>
</g>
<g transform="translate(50, 1270)">
<rect width="900" height="145" fill="#F9FBE7" rx="10" stroke="#e2e8f0"/>
<text x="20" y="45" font-size="18" fill="#33691E" font-weight="bold">STYLE 08</text>
<text x="20" y="70" font-size="9" fill="#365314" opacity="0.6">Hierarchy Check:</text>
<text x="20" y="85" font-size="9" fill="#365314">#F9FBE7 (B) | #FFFFFF (C)</text>
<g transform="translate(220, 5)"><rect width="660" height="130" fill="#FFFFFF" rx="8" stroke="#ccc"/><rect width="660" height="32" fill="url(#gradHead)" rx="8"/><text x="15" y="22" font-size="13" fill="#fff" font-weight="bold">佈局風格樣式 08</text><text x="10" y="45" font-family="sans-serif" font-size="11" fill="#365314" text-anchor="start"><tspan x="10" dy="0">本研究致力於開發高效率之自動化廢棄物分類技術，整合神經網路模型，實現低延遲預測系統。</tspan></text></g>
</g>
<g transform="translate(50, 1430)">
<rect width="900" height="145" fill="#F0F9FF" rx="10" stroke="#e2e8f0"/>
<text x="20" y="45" font-size="18" fill="#01579B" font-weight="bold">STYLE 09</text>
<text x="20" y="70" font-size="9" fill="#1E3A8A" opacity="0.6">Hierarchy Check:</text>
<text x="20" y="85" font-size="9" fill="#1E3A8A">#F0F9FF (B) | #FFFFFF (C)</text>
<g transform="translate(220, 5)"><rect width="660" height="130" fill="#FFFFFF" fill-opacity="0.8" rx="20" stroke="#fff" stroke-opacity="0.5"/><text x="20" y="30" font-size="15" fill="#00214A" font-weight="800">佈局風格樣式 09</text><text x="10" y="45" font-family="sans-serif" font-size="11" fill="#1E3A8A" text-anchor="start"><tspan x="10" dy="0">本研究致力於開發高效率之自動化廢棄物分類技術，整合神經網路模型，實現低延遲預測系統。</tspan></text></g>
</g>
<g transform="translate(50, 1590)">
<rect width="900" height="145" fill="#FFF7ED" rx="10" stroke="#e2e8f0"/>
<text x="20" y="45" font-size="18" fill="#BF360C" font-weight="bold">STYLE 10</text>
<text x="20" y="70" font-size="9" fill="#431407" opacity="0.6">Hierarchy Check:</text>
<text x="20" y="85" font-size="9" fill="#431407">#FFF7ED (B) | #FFFFFF (C)</text>
<g transform="translate(220, 5)"><rect width="660" height="130" fill="#FFFFFF" stroke="#333" stroke-width="2"/><line x1="10" y1="35" x2="650" y2="35" stroke="#333" stroke-width="1"/><text x="10" y="25" font-family="serif" font-size="18" fill="#441200" font-weight="bold">佈局風格樣式 10</text><text x="10" y="45" font-family="sans-serif" font-size="11" fill="#431407" text-anchor="start"><tspan x="10" dy="0">本研究致力於開發高效率之自動化廢棄物分類技術，整合神經網路模型，實現低延遲預測系統。</tspan></text></g>
</g>
<g transform="translate(50, 1750)">
<rect width="900" height="145" fill="#F3F4F6" rx="10" stroke="#e2e8f0"/>
<text x="20" y="45" font-size="18" fill="#374151" font-weight="bold">STYLE 11</text>
<text x="20" y="70" font-size="9" fill="#374151" opacity="0.6">Hierarchy Check:</text>
<text x="20" y="85" font-size="9" fill="#374151">#F3F4F6 (B) | #FFFFFF (C)</text>
<g transform="translate(220, 5)"><rect width="660" height="130" fill="#FFFFFF"/><path d="M 20,0 H 0 V 130 H 20" fill="none" stroke="#374151" stroke-width="3"/><path d="M 640,0 H 660 V 130 H 640" fill="none" stroke="#374151" stroke-width="3"/><text x="330.0" y="25" font-size="14" fill="#111827" text-anchor="middle" font-weight="bold">佈局風格樣式 11</text><text x="10" y="45" font-family="sans-serif" font-size="11" fill="#374151" text-anchor="start"><tspan x="10" dy="0">本研究致力於開發高效率之自動化廢棄物分類技術，整合神經網路模型，實現低延遲預測系統。</tspan></text></g>
</g>
<g transform="translate(50, 1910)">
<rect width="900" height="145" fill="#EEF2FF" rx="10" stroke="#e2e8f0"/>
<text x="20" y="45" font-size="18" fill="#1E1B4B" font-weight="bold">STYLE 12</text>
<text x="20" y="70" font-size="9" fill="#312E81" opacity="0.6">Hierarchy Check:</text>
<text x="20" y="85" font-size="9" fill="#312E81">#EEF2FF (B) | #FFFFFF (C)</text>
<g transform="translate(220, 5)"><rect width="660" height="130" fill="#FFFFFF" rx="4" stroke="#eee"/><path d="M 0,0 H 40 L 50,15 L 40,30 H 0 Z" fill="#1E1B4B"/><text x="20" y="20" font-size="10" fill="#fff" text-anchor="middle">佈局風格</text><text x="10" y="45" font-family="sans-serif" font-size="11" fill="#312E81" text-anchor="start"><tspan x="10" dy="0">本研究致力於開發高效率之自動化廢棄物分類技術，整合神經網路模型，實現低延遲預測系統。</tspan></text></g>
</g>
<g transform="translate(50, 2070)">
<rect width="900" height="145" fill="#ECFDF5" rx="10" stroke="#e2e8f0"/>
<text x="20" y="45" font-size="18" fill="#064E3B" font-weight="bold">STYLE 13</text>
<text x="20" y="70" font-size="9" fill="#065F46" opacity="0.6">Hierarchy Check:</text>
<text x="20" y="85" font-size="9" fill="#065F46">#ECFDF5 (B) | #FFFFFF (C)</text>
<g transform="translate(220, 5)"><rect width="660" height="130" fill="#FFFFFF" stroke="#064E3B"/><polygon points="0,0 40,0 0,40" fill="#064E3B"/><text x="45" y="20" font-size="12" fill="#064E3B" font-weight="bold">佈局風格樣式 13</text><text x="10" y="45" font-family="sans-serif" font-size="11" fill="#065F46" text-anchor="start"><tspan x="10" dy="0">本研究致力於開發高效率之自動化廢棄物分類技術，整合神經網路模型，實現低延遲預測系統。</tspan></text></g>
</g>
<g transform="translate(50, 2230)">
<rect width="900" height="145" fill="#FFFBEB" rx="10" stroke="#e2e8f0"/>
<text x="20" y="45" font-size="18" fill="#451A03" font-weight="bold">STYLE 14</text>
<text x="20" y="70" font-size="9" fill="#78350F" opacity="0.6">Hierarchy Check:</text>
<text x="20" y="85" font-size="9" fill="#78350F">#FFFBEB (B) | #FFFFFF (C)</text>
<g transform="translate(220, 5)"><rect width="660" height="130" fill="#FFFFFF" filter="url(#shadow)"/><text x="0" y="-10" font-size="16" fill="#451A03" font-weight="bold">佈局風格樣式 14</text><text x="10" y="45" font-family="sans-serif" font-size="11" fill="#78350F" text-anchor="start"><tspan x="10" dy="0">本研究致力於開發高效率之自動化廢棄物分類技術，整合神經網路模型，實現低延遲預測系統。</tspan></text></g>
</g>
<g transform="translate(50, 2390)">
<rect width="900" height="145" fill="#FFFFFF" rx="10" stroke="#e2e8f0"/>
<text x="20" y="45" font-size="18" fill="#333333" font-weight="bold">STYLE 15</text>
<text x="20" y="70" font-size="9" fill="#4B5563" opacity="0.6">Hierarchy Check:</text>
<text x="20" y="85" font-size="9" fill="#4B5563">#FFFFFF (B) | #F9FAFB (C)</text>
<g transform="translate(220, 5)"><rect x="2" y="2" width="660" height="130" fill="none" stroke="#333333" opacity="0.3"/><rect width="660" height="130" fill="#F9FAFB" stroke="#333333" stroke-width="2"/><text x="10" y="24" font-size="14" fill="#000000" font-weight="900">佈局風格樣式 15</text><text x="10" y="45" font-family="sans-serif" font-size="11" fill="#4B5563" text-anchor="start"><tspan x="10" dy="0">本研究致力於開發高效率之自動化廢棄物分類技術，整合神經網路模型，實現低延遲預測系統。</tspan></text></g>
</g>
<g transform="translate(50, 2550)">
<rect width="900" height="145" fill="#F1F5F9" rx="10" stroke="#e2e8f0"/>
<text x="20" y="45" font-size="18" fill="#1E293B" font-weight="bold">STYLE 16</text>
<text x="20" y="70" font-size="9" fill="#1E293B" opacity="0.6">Hierarchy Check:</text>
<text x="20" y="85" font-size="9" fill="#1E293B">#F1F5F9 (B) | #FFFFFF (C)</text>
<g transform="translate(220, 5)"><rect width="660" height="130" fill="#FFFFFF"/><circle cx="15" cy="18" r="8" fill="#1E293B"/><text x="35" y="24" font-size="14" fill="#020617" font-weight="bold">佈局風格樣式 16</text><text x="10" y="45" font-family="sans-serif" font-size="11" fill="#1E293B" text-anchor="start"><tspan x="10" dy="0">本研究致力於開發高效率之自動化廢棄物分類技術，整合神經網路模型，實現低延遲預測系統。</tspan></text></g>
</g>
<g transform="translate(50, 2710)">
<rect width="900" height="145" fill="#FFFFFF" rx="10" stroke="#e2e8f0"/>
<text x="20" y="45" font-size="18" fill="#0F172A" font-weight="bold">STYLE 17</text>
<text x="20" y="70" font-size="9" fill="#334155" opacity="0.6">Hierarchy Check:</text>
<text x="20" y="85" font-size="9" fill="#334155">#FFFFFF (B) | #F8FAFC (C)</text>
<g transform="translate(220, 5)"><rect width="660" height="130" fill="#F8FAFC" stroke="#ddd"/><path d="M 0,0 H 220.0" stroke="#0F172A" stroke-width="10"/><text x="10" y="30" font-size="15" fill="#0F172A" font-weight="bold">佈局風格樣式 17</text><text x="10" y="45" font-family="sans-serif" font-size="11" fill="#334155" text-anchor="start"><tspan x="10" dy="0">本研究致力於開發高效率之自動化廢棄物分類技術，整合神經網路模型，實現低延遲預測系統。</tspan></text></g>
</g>
<g transform="translate(50, 2870)">
<rect width="900" height="145" fill="#FFF7ED" rx="10" stroke="#e2e8f0"/>
<text x="20" y="45" font-size="18" fill="#7C2D12" font-weight="bold">STYLE 18</text>
<text x="20" y="70" font-size="9" fill="#9A3412" opacity="0.6">Hierarchy Check:</text>
<text x="20" y="85" font-size="9" fill="#9A3412">#FFF7ED (B) | #FFFFFF (C)</text>
<g transform="translate(220, 5)"><rect width="660" height="130" fill="#FFFFFF" stroke="#eee"/><path d="M 0,0 H 660 V 40 L 0,20 Z" fill="#7C2D12"/><text x="15" y="22" font-size="12" fill="#fff" font-weight="bold">佈局風格樣式 18</text><text x="10" y="45" font-family="sans-serif" font-size="11" fill="#9A3412" text-anchor="start"><tspan x="10" dy="0">本研究致力於開發高效率之自動化廢棄物分類技術，整合神經網路模型，實現低延遲預測系統。</tspan></text></g>
</g>
<g transform="translate(50, 3030)">
<rect width="900" height="145" fill="#F5F3FF" rx="10" stroke="#e2e8f0"/>
<text x="20" y="45" font-size="18" fill="#4C1D95" font-weight="bold">STYLE 19</text>
<text x="20" y="70" font-size="9" fill="#5B21B6" opacity="0.6">Hierarchy Check:</text>
<text x="20" y="85" font-size="9" fill="#5B21B6">#F5F3FF (B) | #FFFFFF (C)</text>
<g transform="translate(220, 5)"><rect width="660" height="130" fill="#FFFFFF"/><path d="M 0,30 H 660" stroke="#4C1D95" stroke-width="0.5"/><path d="M 0,35 H 330.0" stroke="#4C1D95" stroke-width="3"/><text x="0" y="20" font-size="18" fill="#4C1D95" font-weight="bold" font-style="italic">佈局風格樣式 19</text><text x="10" y="45" font-family="sans-serif" font-size="11" fill="#5B21B6" text-anchor="start"><tspan x="10" dy="0">本研究致力於開發高效率之自動化廢棄物分類技術，整合神經網路模型，實現低延遲預測系統。</tspan></text></g>
</g>
<g transform="translate(50, 3190)">
<rect width="900" height="145" fill="#E5E7EB" rx="10" stroke="#e2e8f0"/>
<text x="20" y="45" font-size="18" fill="#000000" font-weight="bold">STYLE 20</text>
<text x="20" y="70" font-size="9" fill="#1F2937" opacity="0.6">Hierarchy Check:</text>
<text x="20" y="85" font-size="9" fill="#1F2937">#E5E7EB (B) | #FFFFFF (C)</text>
<g transform="translate(220, 5)"><rect width="660" height="130" fill="#FFFFFF" rx="30 0 30 0" stroke="#000000"/><text x="330.0" y="25" font-size="14" fill="#000000" text-anchor="middle" font-weight="bold">◈ 佈局風格樣式 20 ◈</text><text x="10" y="45" font-family="sans-serif" font-size="11" fill="#1F2937" text-anchor="start"><tspan x="10" dy="0">本研究致力於開發高效率之自動化廢棄物分類技術，整合神經網路模型，實現低延遲預測系統。</tspan></text></g>
</g>
<defs><filter id="shadow"><feDropShadow dx="0" dy="2" stdDeviation="3" flood-opacity="0.1"/></filter><linearGradient id="gradHead" x1="0%" y1="0%" x2="100%" y2="0%"><stop offset="0%" style="stop-color:#01579B"/><stop offset="100%" style="stop-color:#00B0FF"/></linearGradient></defs></svg>