<svg width="1000" height="3400" xmlns="http://www.w3.org/2000/svg">
<rect width="1000" height="3400" fill="#f5f7f9"/>
<text x="500" y="55" font-family="sans-serif" font-size="32" text-anchor="middle" font-weight="bold">科展海報 UI 元件設計大賞 (全 20 套展示)</text>
<g transform="translate(50, 150)">
<text x="0" y="65" font-size="18" font-weight="bold">STYLE 01</text>
<g transform="translate(220, 0)"><rect width="720" height="140" fill="#fff" stroke="#01579B" stroke-width="0.8"/><rect width="720" height="24" fill="#01579B"/><text x="10" y="16" font-size="12" fill="#fff" font-weight="bold">預覽佈局風格 01</text><text x="12" y="50" font-family="sans-serif" font-size="10.5" fill="#333" text-anchor="start"><tspan x="12" dy="0">請查看此摘要區塊之佈局壓力與自動分行效果表現，此處填入高密度科研文字，以便測試。此技術完全兼容於 Inkscape。</tspan></text></g>
</g>
<line x1="50" y1="300" x2="950" y2="300" stroke="#ddd" stroke-width="1"/>
<g transform="translate(50, 310)">
<text x="0" y="65" font-size="18" font-weight="bold">STYLE 02</text>
<g transform="translate(220, 0)"><rect width="720" height="140" fill="#fff" rx="15" stroke="#eee" filter="url(#shadow)"/><text x="12" y="24" font-size="12" fill="#01579B" font-weight="bold">● 預覽佈局風格 02</text><text x="12" y="50" font-family="sans-serif" font-size="10.5" fill="#333" text-anchor="start"><tspan x="12" dy="0">請查看此摘要區塊之佈局壓力與自動分行效果表現，此處填入高密度科研文字，以便測試。此技術完全兼容於 Inkscape。</tspan></text></g>
</g>
<line x1="50" y1="460" x2="950" y2="460" stroke="#ddd" stroke-width="1"/>
<g transform="translate(50, 470)">
<text x="0" y="65" font-size="18" font-weight="bold">STYLE 03</text>
<g transform="translate(220, 0)"><line x1="0" y1="22" x2="720" y2="22" stroke="#01579B" stroke-width="3"/><text x="0" y="16" font-size="14" fill="#01579B" font-weight="bold">預覽佈局風格 03</text><text x="12" y="40" font-family="sans-serif" font-size="10.5" fill="#333" text-anchor="start"><tspan x="12" dy="0">請查看此摘要區塊之佈局壓力與自動分行效果表現，此處填入高密度科研文字，以便測試。此技術完全兼容於 Inkscape。</tspan></text></g>
</g>
<line x1="50" y1="620" x2="950" y2="620" stroke="#ddd" stroke-width="1"/>
<g transform="translate(50, 630)">
<text x="0" y="65" font-size="18" font-weight="bold">STYLE 04</text>
<g transform="translate(220, 0)"><rect width="8" height="140" fill="#01579B"/><text x="18" y="20" font-size="13" fill="#01579B" font-weight="bold">預覽佈局風格 04</text><text x="12" y="50" font-family="sans-serif" font-size="10.5" fill="#333" text-anchor="start"><tspan x="12" dy="0">請查看此摘要區塊之佈局壓力與自動分行效果表現，此處填入高密度科研文字，以便測試。此技術完全兼容於 Inkscape。</tspan></text></g>
</g>
<line x1="50" y1="780" x2="950" y2="780" stroke="#ddd" stroke-width="1"/>
<g transform="translate(50, 790)">
<text x="0" y="65" font-size="18" font-weight="bold">STYLE 05</text>
<g transform="translate(220, 0)"><rect width="720" height="140" fill="#fff" rx="10" stroke="#ddd"/><rect width="720" height="32" fill="#E1F5FE" rx="10"/><rect y="20" width="720" height="12" fill="#E1F5FE"/><text x="12" y="22" font-size="12" fill="#01579B" font-weight="bold">預覽佈局風格 05</text><text x="12" y="50" font-family="sans-serif" font-size="10.5" fill="#333" text-anchor="start"><tspan x="12" dy="0">請查看此摘要區塊之佈局壓力與自動分行效果表現，此處填入高密度科研文字，以便測試。此技術完全兼容於 Inkscape。</tspan></text></g>
</g>
<line x1="50" y1="940" x2="950" y2="940" stroke="#ddd" stroke-width="1"/>
<g transform="translate(50, 950)">
<text x="0" y="65" font-size="18" font-weight="bold">STYLE 06</text>
<g transform="translate(220, 0)"><rect width="720" height="140" fill="none" stroke="#01579B" stroke-dasharray="4,2"/><rect width="100" height="22" fill="#01579B"/><text x="10" y="16" font-size="11" fill="#fff">預覽佈局風格 06</text><text x="12" y="50" font-family="sans-serif" font-size="10.5" fill="#333" text-anchor="start"><tspan x="12" dy="0">請查看此摘要區塊之佈局壓力與自動分行效果表現，此處填入高密度科研文字，以便測試。此技術完全兼容於 Inkscape。</tspan></text></g>
</g>
<line x1="50" y1="1100" x2="950" y2="1100" stroke="#ddd" stroke-width="1"/>
<g transform="translate(50, 1110)">
<text x="0" y="65" font-size="18" font-weight="bold">STYLE 07</text>
<g transform="translate(220, 0)"><rect width="720" height="140" fill="#fff" stroke="#ddd" rx="5"/><rect x="15" y="-12" width="120" height="24" fill="#01579B" rx="5"/><text x="25" y="4" font-size="11" fill="#fff" font-weight="bold">預覽佈局風格 07</text><text x="12" y="50" font-family="sans-serif" font-size="10.5" fill="#333" text-anchor="start"><tspan x="12" dy="0">請查看此摘要區塊之佈局壓力與自動分行效果表現，此處填入高密度科研文字，以便測試。此技術完全兼容於 Inkscape。</tspan></text></g>
</g>
<line x1="50" y1="1260" x2="950" y2="1260" stroke="#ddd" stroke-width="1"/>
<g transform="translate(50, 1270)">
<text x="0" y="65" font-size="18" font-weight="bold">STYLE 08</text>
<g transform="translate(220, 0)"><line x1="-12" y1="12" x2="-12" y2="140" stroke="#01579B" stroke-width="2" stroke-dasharray="2,2"/><circle cx="-12" cy="12" r="6" fill="#01579B"/><text x="10" y="18" font-size="14" fill="#01579B" font-weight="bold">預覽佈局風格 08</text><text x="12" y="50" font-family="sans-serif" font-size="10.5" fill="#333" text-anchor="start"><tspan x="12" dy="0">請查看此摘要區塊之佈局壓力與自動分行效果表現，此處填入高密度科研文字，以便測試。此技術完全兼容於 Inkscape。</tspan></text></g>
</g>
<line x1="50" y1="1420" x2="950" y2="1420" stroke="#ddd" stroke-width="1"/>
<g transform="translate(50, 1430)">
<text x="0" y="65" font-size="18" font-weight="bold">STYLE 09</text>
<g transform="translate(220, 0)"><rect width="720" height="6" fill="#01579B"/><rect y="6" width="720" height="134" fill="#E1F5FE" opacity="0.3"/><text x="0" y="25" font-size="14" fill="#01579B" font-weight="bold">預覽佈局風格 09</text><text x="12" y="50" font-family="sans-serif" font-size="10.5" fill="#333" text-anchor="start"><tspan x="12" dy="0">請查看此摘要區塊之佈局壓力與自動分行效果表現，此處填入高密度科研文字，以便測試。此技術完全兼容於 Inkscape。</tspan></text></g>
</g>
<line x1="50" y1="1580" x2="950" y2="1580" stroke="#ddd" stroke-width="1"/>
<g transform="translate(50, 1590)">
<text x="0" y="65" font-size="18" font-weight="bold">STYLE 10</text>
<g transform="translate(220, 0)"><path d="M20,0 L0,0 L0,20" fill="none" stroke="#01579B" stroke-width="3"/><path d="M700,140 L720,140 L720,120" fill="none" stroke="#01579B" stroke-width="3"/><text x="12" y="24" font-size="14" fill="#01579B" font-weight="bold">預覽佈局風格 10</text><text x="12" y="50" font-family="sans-serif" font-size="10.5" fill="#333" text-anchor="start"><tspan x="12" dy="0">請查看此摘要區塊之佈局壓力與自動分行效果表現，此處填入高密度科研文字，以便測試。此技術完全兼容於 Inkscape。</tspan></text></g>
</g>
<line x1="50" y1="1740" x2="950" y2="1740" stroke="#ddd" stroke-width="1"/>
<g transform="translate(50, 1750)">
<text x="0" y="65" font-size="18" font-weight="bold">STYLE 11</text>
<g transform="translate(220, 0)"><line x1="0" y1="0" x2="720" y2="0" stroke="#000" stroke-width="2"/><text x="0" y="22" font-family="serif" font-size="16" fill="#000" font-weight="bold">預覽佈局風格 11</text><text x="12" y="50" font-family="sans-serif" font-size="10.5" fill="#333" text-anchor="start"><tspan x="12" dy="0">請查看此摘要區塊之佈局壓力與自動分行效果表現，此處填入高密度科研文字，以便測試。此技術完全兼容於 Inkscape。</tspan></text></g>
</g>
<line x1="50" y1="1900" x2="950" y2="1900" stroke="#ddd" stroke-width="1"/>
<g transform="translate(50, 1910)">
<text x="0" y="65" font-size="18" font-weight="bold">STYLE 12</text>
<g transform="translate(220, 0)"><circle cx="20" cy="20" r="22" fill="#E1F5FE" stroke="#01579B"/><text x="20" y="28" text-anchor="middle" font-size="22" fill="#01579B" font-weight="bold">★</text><text x="55" y="26" font-size="14" fill="#01579B" font-weight="bold">預覽佈局風格 12</text><text x="12" y="50" font-family="sans-serif" font-size="10.5" fill="#333" text-anchor="start"><tspan x="12" dy="0">請查看此摘要區塊之佈局壓力與自動分行效果表現，此處填入高密度科研文字，以便測試。此技術完全兼容於 Inkscape。</tspan></text></g>
</g>
<line x1="50" y1="2060" x2="950" y2="2060" stroke="#ddd" stroke-width="1"/>
<g transform="translate(50, 2070)">
<text x="0" y="65" font-size="18" font-weight="bold">STYLE 13</text>
<g transform="translate(220, 0)"><rect width="720" height="140" fill="#fff" stroke="#ddd"/><path d="M0,0 L40,0 L0,40 Z" fill="#01579B"/><text x="45" y="20" font-size="12" fill="#01579B" font-weight="bold">預覽佈局風格 13</text><text x="12" y="50" font-family="sans-serif" font-size="10.5" fill="#333" text-anchor="start"><tspan x="12" dy="0">請查看此摘要區塊之佈局壓力與自動分行效果表現，此處填入高密度科研文字，以便測試。此技術完全兼容於 Inkscape。</tspan></text></g>
</g>
<line x1="50" y1="2220" x2="950" y2="2220" stroke="#ddd" stroke-width="1"/>
<g transform="translate(50, 2230)">
<text x="0" y="65" font-size="18" font-weight="bold">STYLE 14</text>
<g transform="translate(220, 0)"><rect width="720" height="140" fill="#fff" fill-opacity="0.8" stroke="#fff" stroke-width="1" rx="12" filter="url(#shadow)"/><text x="15" y="24" font-size="13" fill="#01579B" font-weight="bold">預覽佈局風格 14</text><text x="12" y="50" font-family="sans-serif" font-size="10.5" fill="#333" text-anchor="start"><tspan x="12" dy="0">請查看此摘要區塊之佈局壓力與自動分行效果表現，此處填入高密度科研文字，以便測試。此技術完全兼容於 Inkscape。</tspan></text></g>
</g>
<line x1="50" y1="2380" x2="950" y2="2380" stroke="#ddd" stroke-width="1"/>
<g transform="translate(50, 2390)">
<text x="0" y="65" font-size="18" font-weight="bold">STYLE 15</text>
<g transform="translate(220, 0)"><rect width="720" height="140" fill="#fff" stroke="#01579B" stroke-width="0.5" rx="30 5 30 5"/><text x="30" y="24" font-size="13" fill="#01579B" font-weight="bold">預覽佈局風格 15</text><text x="12" y="50" font-family="sans-serif" font-size="10.5" fill="#333" text-anchor="start"><tspan x="12" dy="0">請查看此摘要區塊之佈局壓力與自動分行效果表現，此處填入高密度科研文字，以便測試。此技術完全兼容於 Inkscape。</tspan></text></g>
</g>
<line x1="50" y1="2540" x2="950" y2="2540" stroke="#ddd" stroke-width="1"/>
<g transform="translate(50, 2550)">
<text x="0" y="65" font-size="18" font-weight="bold">STYLE 16</text>
<g transform="translate(220, 0)"><rect width="720" height="140" fill="#fff" stroke="#000" stroke-width="4"/><rect width="720" height="32" fill="#000"/><text x="10" y="22" font-size="14" fill="#fff" font-weight="bold">預覽佈局風格 16</text><text x="12" y="50" font-family="sans-serif" font-size="10.5" fill="#333" text-anchor="start"><tspan x="12" dy="0">請查看此摘要區塊之佈局壓力與自動分行效果表現，此處填入高密度科研文字，以便測試。此技術完全兼容於 Inkscape。</tspan></text></g>
</g>
<line x1="50" y1="2700" x2="950" y2="2700" stroke="#ddd" stroke-width="1"/>
<g transform="translate(50, 2710)">
<text x="0" y="65" font-size="18" font-weight="bold">STYLE 17</text>
<g transform="translate(220, 0)"><rect width="720" height="140" fill="url(#dotGrid)" stroke="#ddd"/><rect x="10" y="8" width="100" height="22" fill="#fff" stroke="#01579B"/><text x="18" y="24" font-size="11" fill="#01579B" font-weight="bold">預覽佈局風格 17</text><text x="12" y="50" font-family="sans-serif" font-size="10.5" fill="#333" text-anchor="start"><tspan x="12" dy="0">請查看此摘要區塊之佈局壓力與自動分行效果表現，此處填入高密度科研文字，以便測試。此技術完全兼容於 Inkscape。</tspan></text></g>
</g>
<line x1="50" y1="2860" x2="950" y2="2860" stroke="#ddd" stroke-width="1"/>
<g transform="translate(50, 2870)">
<text x="0" y="65" font-size="18" font-weight="bold">STYLE 18</text>
<g transform="translate(220, 0)"><rect width="720" height="140" fill="none" stroke="#eee"/><text x="0" y="15" font-size="13" fill="#01579B" font-weight="bold" text-decoration="underline">預覽佈局風格 18</text><text x="12" y="50" font-family="sans-serif" font-size="10.5" fill="#333" text-anchor="start"><tspan x="12" dy="0">請查看此摘要區塊之佈局壓力與自動分行效果表現，此處填入高密度科研文字，以便測試。此技術完全兼容於 Inkscape。</tspan></text></g>
</g>
<line x1="50" y1="3020" x2="950" y2="3020" stroke="#ddd" stroke-width="1"/>
<g transform="translate(50, 3030)">
<text x="0" y="65" font-size="18" font-weight="bold">STYLE 19</text>
<g transform="translate(220, 0)"><rect width="720" height="140" fill="none" stroke="#01579B" stroke-width="4" opacity="0.1"/><rect x="6" y="6" width="708" height="128" fill="#fff" stroke="#01579B" stroke-width="1"/><text x="16" y="28" font-size="13" fill="#01579B" font-weight="bold">預覽佈局風格 19</text><text x="12" y="50" font-family="sans-serif" font-size="10.5" fill="#333" text-anchor="start"><tspan x="12" dy="0">請查看此摘要區塊之佈局壓力與自動分行效果表現，此處填入高密度科研文字，以便測試。此技術完全兼容於 Inkscape。</tspan></text></g>
</g>
<line x1="50" y1="3180" x2="950" y2="3180" stroke="#ddd" stroke-width="1"/>
<g transform="translate(50, 3190)">
<text x="0" y="65" font-size="18" font-weight="bold">STYLE 20</text>
<g transform="translate(220, 0)"><rect width="720" height="140" fill="#fff" stroke="#ddd" rx="4"/><rect width="720" height="35" fill="url(#gradHead)" rx="4"/><text x="12" y="24" font-size="13" fill="#fff" font-weight="bold">預覽佈局風格 20</text><text x="12" y="50" font-family="sans-serif" font-size="10.5" fill="#333" text-anchor="start"><tspan x="12" dy="0">請查看此摘要區塊之佈局壓力與自動分行效果表現，此處填入高密度科研文字，以便測試。此技術完全兼容於 Inkscape。</tspan></text></g>
</g>
<line x1="50" y1="3340" x2="950" y2="3340" stroke="#ddd" stroke-width="1"/>
<defs><filter id="shadow"><feDropShadow dx="0" dy="2" stdDeviation="3" flood-opacity="0.1"/></filter><pattern id="dotGrid" width="10" height="10" patternUnits="userSpaceOnUse"><circle cx="1" cy="1" r="1" fill="#ddd"/></pattern><linearGradient id="gradHead" x1="0%" y1="0%" x2="100%" y2="0%"><stop offset="0%" style="stop-color:#01579B"/><stop offset="100%" style="stop-color:#00B0FF"/></linearGradient></defs></svg>